<svg width="26" height="32" viewBox="0 0 26 32" fill="none" xmlns="http://www.w3.org/2000/svg">
<path d="M20.9707 12.1157C21.733 11.8562 22.2844 11.1588 22.2844 10.3154V8.96917C22.2844 8.12578 21.733 7.42836 20.9545 7.16885C20.6625 3.17895 17.37 0 13.299 0H12.5205C8.46575 0.0162191 5.15705 3.17895 4.86511 7.16885C4.10281 7.41214 3.51892 8.12578 3.51892 8.96917V10.3154C3.51892 11.3696 4.37853 12.2292 5.43277 12.2292H5.49765C5.87069 12.2292 6.21129 12.0995 6.50324 11.9048C7.00603 13.2997 7.9143 14.4999 9.13073 15.3108V17.4842H6.21129C3.1621 17.4842 0.696793 19.9657 0.696793 22.9987C0.696793 23.3717 0.988737 23.6637 1.36178 23.6637C1.73482 23.6637 2.02676 23.3717 2.02676 22.9987C2.02676 20.6956 3.90818 18.8142 6.21129 18.8142H14.5317C14.9047 18.8142 15.1967 18.5222 15.1967 18.1492C15.1967 17.7762 14.9047 17.4842 14.5317 17.4842H10.4769V15.9921C11.2392 16.284 12.0502 16.4624 12.9098 16.4624C15.8617 16.4624 18.3594 14.5485 19.3001 11.9211C19.4137 11.9859 19.511 12.067 19.6245 12.1157C19.4461 14.1106 18.2783 15.8947 16.478 16.8354C16.1536 16.9976 16.0239 17.4031 16.2023 17.7275C16.3158 17.9546 16.5591 18.0843 16.7862 18.0843C16.8835 18.0843 16.997 18.0681 17.0943 18.0032C19.3326 16.8354 20.7761 14.6134 20.9545 12.1157H20.9707ZM12.5205 1.34619H13.299C16.6402 1.34619 19.3488 3.92503 19.6245 7.20129C19.511 7.24995 19.4137 7.31482 19.3163 7.3797C18.3756 4.73598 15.8779 2.83835 12.926 2.83835C9.97413 2.83835 7.46016 4.7522 6.51946 7.39592C6.42214 7.33104 6.32483 7.24995 6.21129 7.20129C6.48702 3.92503 9.19561 1.34619 12.5367 1.34619H12.5205ZM6.09776 10.3154C6.09776 10.6397 5.83825 10.8992 5.51387 10.8992H5.44899C5.12461 10.8992 4.86511 10.6397 4.86511 10.3154V8.96917C4.86511 8.64479 5.12461 8.38528 5.51387 8.38528C5.83825 8.38528 6.09776 8.64479 6.09776 8.96917V10.3154ZM12.9098 15.1324C9.89303 15.1324 7.42773 12.6671 7.42773 9.65037C7.42773 6.63362 9.89303 4.16831 12.9098 4.16831C15.9265 4.16831 18.3918 6.63362 18.3918 9.65037C18.3918 12.6671 15.9265 15.1324 12.9098 15.1324ZM19.7218 8.98539C19.7218 8.66101 19.9813 8.4015 20.3706 8.4015C20.695 8.4015 20.9545 8.66101 20.9545 8.98539V10.3316C20.9545 10.656 20.695 10.9155 20.3706 10.9155H20.3057C19.9813 10.9155 19.7218 10.656 19.7218 10.3316V8.98539Z" fill="white"/>
<path d="M18.9271 17.8891C18.9271 18.2621 19.219 18.5541 19.592 18.5541C21.8952 18.5541 23.7766 20.4355 23.7766 22.7386V22.9981C23.7766 23.3712 24.0685 23.6631 24.4416 23.6631C24.8146 23.6631 25.1065 23.3712 25.1065 22.9981V22.7386C25.1065 19.6894 22.625 17.2241 19.592 17.2241C19.219 17.2241 18.9271 17.5161 18.9271 17.8891Z" fill="white"/>
<path d="M16.0887 27.0367L14.3046 26.7772L13.5099 25.1553C13.3964 24.9282 13.1693 24.7822 12.9098 24.7822C12.6503 24.7822 12.4232 24.9282 12.3097 25.1553L11.5149 26.7772L9.73083 27.0367C9.48755 27.0691 9.2767 27.2475 9.1956 27.4908C9.11451 27.7341 9.1956 27.9936 9.35779 28.172L10.6553 29.4371L10.3472 31.2212C10.2985 31.4645 10.412 31.724 10.6067 31.87C10.8175 32.016 11.077 32.0322 11.3041 31.9186L12.9098 31.0752L14.5155 31.9186C14.6128 31.9673 14.7263 31.9997 14.8236 31.9997C14.9696 31.9997 15.0994 31.9511 15.2129 31.87C15.4237 31.724 15.5211 31.4645 15.4724 31.2212L15.1642 29.4371L16.4618 28.172C16.6402 27.9936 16.7051 27.7341 16.624 27.4908C16.5429 27.2475 16.332 27.0691 16.0887 27.0367ZM13.9965 28.7235C13.8343 28.8694 13.7694 29.0965 13.8018 29.3074L13.9316 30.1021L13.2179 29.7291C13.0233 29.6317 12.7962 29.6317 12.6016 29.7291L11.888 30.1021L12.0177 29.3074C12.0502 29.0965 11.9853 28.8694 11.8231 28.7235L11.2392 28.1558L12.0339 28.0423C12.2448 28.0098 12.4394 27.8801 12.5367 27.6854L12.8936 26.9556L13.2504 27.6854C13.3477 27.8801 13.5423 28.0261 13.7532 28.0423L14.5479 28.1558L13.964 28.7235H13.9965Z" fill="white"/>
<path d="M6.92494 27.037L5.14084 26.7775L4.3461 25.1555C4.11903 24.7014 3.37295 24.7014 3.14588 25.1555L2.35115 26.7775L0.567045 27.037C0.323758 27.0694 0.11291 27.2478 0.0318142 27.4911C-0.0492814 27.7344 0.0318142 27.9939 0.194005 28.1723L1.49153 29.4374L1.18337 31.2215C1.13471 31.4648 1.24825 31.7243 1.44288 31.8703C1.55641 31.9514 1.70238 32 1.83214 32C1.94567 32 2.04298 31.9676 2.1403 31.9189L3.74599 31.0755L5.35168 31.9189C5.57875 32.0324 5.85448 32.0162 6.04911 31.8703C6.25995 31.7243 6.35727 31.4648 6.30861 31.2215L6.00045 29.4374L7.29798 28.1723C7.47639 27.9939 7.54127 27.7344 7.46017 27.4911C7.37907 27.2478 7.16823 27.0694 6.92494 27.037ZM4.81645 28.7237C4.65426 28.8697 4.58939 29.0968 4.62182 29.3076L4.75158 30.1024L4.03794 29.7293C3.94062 29.6807 3.82709 29.6482 3.72977 29.6482C3.63246 29.6482 3.51892 29.6807 3.42161 29.7293L2.70797 30.1024L2.83772 29.3076C2.87016 29.0968 2.80528 28.8697 2.64309 28.7237L2.0592 28.1561L2.85394 28.0425C3.06479 28.0101 3.25942 27.8804 3.35673 27.6857L3.71355 26.9559L4.07037 27.6857C4.16769 27.8804 4.36232 28.0263 4.57317 28.0425L5.3679 28.1561L4.78402 28.7237H4.81645Z" fill="white"/>
<path d="M25.804 27.4911C25.7229 27.2478 25.512 27.0694 25.2687 27.037L23.4846 26.7775L22.6899 25.1555C22.4628 24.7014 21.7167 24.7014 21.4897 25.1555L20.6949 26.7775L18.9108 27.037C18.6676 27.0694 18.4567 27.2478 18.3756 27.4911C18.2945 27.7344 18.3756 27.9939 18.5378 28.1723L19.8353 29.4374L19.5272 31.2215C19.4785 31.4648 19.592 31.7243 19.7867 31.8703C19.9002 31.9514 20.0462 32 20.1759 32C20.2895 32 20.3868 31.9676 20.4841 31.9189L22.0898 31.0755L23.6955 31.9189C23.9225 32.0324 24.1983 32.0162 24.3929 31.8703C24.6038 31.7243 24.7011 31.4648 24.6524 31.2215L24.3442 29.4374L25.6418 28.1723C25.8202 27.9939 25.8851 27.7344 25.804 27.4911ZM23.1602 28.7237C22.9981 28.8697 22.9332 29.0968 22.9656 29.3076L23.0954 30.1024L22.3817 29.7293C22.2844 29.6807 22.1709 29.6482 22.0736 29.6482C21.9763 29.6482 21.8627 29.6807 21.7654 29.7293L21.0518 30.1024L21.1815 29.3076C21.214 29.0968 21.1491 28.8697 20.9869 28.7237L20.403 28.1561L21.1977 28.0425C21.4086 28.0101 21.6032 27.8804 21.7005 27.6857L22.0573 26.9559L22.4142 27.6857C22.5115 27.8804 22.7061 28.0263 22.917 28.0425L23.7117 28.1561L23.1278 28.7237H23.1602Z" fill="white"/>
</svg>
