<svg width="32" height="32" viewBox="0 0 32 32" fill="none" xmlns="http://www.w3.org/2000/svg">
<g clip-path="url(#clip0_3006_3650)">
<path d="M27.8754 25.1488C27.9862 25.1488 28.0692 25.1488 28.1522 25.1488C29.2042 25.1488 30.2699 25.1488 31.3218 25.1488C31.8201 25.1488 32.0277 25.3702 31.9862 25.8685C31.9031 26.8789 31.0727 27.6401 30.0484 27.6401C27.3772 27.6401 24.7059 27.6401 22.0346 27.6401C17.9792 27.6401 13.9239 27.6401 9.86851 27.6401C7.22492 27.6401 4.58132 27.6401 1.93772 27.6401C0.885815 27.6401 0.0553655 26.8512 -0.0138386 25.8131C-0.0415203 25.3702 0.166092 25.1488 0.608999 25.1349C1.68858 25.1349 2.75433 25.1349 3.83391 25.1349C3.91696 25.1349 4 25.1349 4.11073 25.1349C4.11073 24.9965 4.11073 24.872 4.11073 24.7474C4.11073 19.7924 4.11073 14.8512 4.11073 9.89619C4.11073 9.13495 4.62284 8.58131 5.39793 8.609C6.28374 8.65052 7.15571 8.609 8.04152 8.609H8.31834C8.31834 8.49827 8.31834 8.41522 8.31834 8.33218C8.31834 7.16955 8.31834 5.99308 8.31834 4.83045C8.31834 4.27682 8.59516 4 9.17647 4C13.7301 4 18.2699 4 22.8235 4C23.4048 4 23.6817 4.27682 23.6817 4.87197C23.6817 6.0346 23.6817 7.18339 23.6817 8.34602C23.6817 8.42907 23.6817 8.51211 23.6817 8.62284C23.7924 8.62284 23.8616 8.62284 23.9446 8.62284C24.8443 8.62284 25.7578 8.62284 26.6574 8.62284C27.4187 8.62284 27.8754 9.07958 27.8754 9.82699C27.8754 14.8097 27.8754 19.7924 27.8754 24.7751C27.8754 24.8858 27.8754 24.9965 27.8754 25.1349V25.1488ZM23.6817 10.2976C23.6817 10.4083 23.6817 10.4913 23.6817 10.5606C23.6817 11.5156 23.6817 12.4567 23.6817 13.4118C23.6817 16.3183 23.6817 19.2249 23.6817 22.1176C23.6817 22.6436 23.474 22.8512 22.9619 22.8512C18.3253 22.8512 13.6886 22.8512 9.06575 22.8512C8.53979 22.8512 8.33218 22.6436 8.33218 22.1315C8.33218 18.2976 8.33218 14.4637 8.33218 10.6436C8.33218 10.5329 8.33218 10.4221 8.33218 10.2976C7.55709 10.2976 6.83737 10.2976 6.11765 10.2976C5.81315 10.2976 5.81315 10.2976 5.81315 10.6021C5.81315 14.9619 5.81315 19.3356 5.81315 23.6955C5.81315 23.917 5.92849 24.0277 6.15917 24.0277C12.7336 24.0277 19.3218 24.0277 25.8962 24.0277C26.1084 24.0277 26.2145 23.917 26.2145 23.6955C26.2145 19.6263 26.2145 15.5571 26.2145 11.4879C26.2145 11.1834 26.2145 10.8651 26.2145 10.5606C26.2145 10.3668 26.1592 10.2837 25.9516 10.2976C25.6609 10.3114 25.3841 10.2976 25.0934 10.2976C24.6367 10.2976 24.1661 10.2976 23.6817 10.2976ZM8.84429 22.3391C8.96886 22.3391 9.0519 22.3391 9.14879 22.3391C13.7163 22.3391 18.2976 22.3391 22.8651 22.3391C23.1695 22.3391 23.1695 22.3391 23.1695 22.0346C23.1695 18.8374 23.1695 15.6263 23.1695 12.4291C23.1695 9.92388 23.1695 7.41868 23.1695 4.92734C23.1695 4.56747 23.128 4.52595 22.782 4.52595C18.2699 4.52595 13.7578 4.52595 9.25952 4.52595C8.89966 4.52595 8.87197 4.56747 8.87197 4.92734C8.87197 10.6298 8.87197 16.346 8.87197 22.0484C8.87197 22.1315 8.87197 22.2145 8.87197 22.3529L8.84429 22.3391ZM31.474 25.6886H0.512113C0.512113 25.7993 0.512113 25.8962 0.539795 25.9792C0.692044 26.6713 1.25952 27.128 1.99308 27.128C5.03806 27.128 8.08305 27.128 11.128 27.128C17.3702 27.128 23.6125 27.128 29.8547 27.128C29.9377 27.128 30.0208 27.128 30.1038 27.128C30.8651 27.1003 31.5156 26.436 31.4602 25.6886H31.474ZM8.3045 9.14879C7.2526 9.14879 6.22838 9.14879 5.19031 9.14879C4.84429 9.14879 4.63668 9.43945 4.63668 9.81315C4.63668 14.8374 4.63668 19.8477 4.63668 24.872C4.63668 24.955 4.63668 25.0381 4.63668 25.1211H27.3218C27.3218 25.0381 27.3356 24.9689 27.3356 24.8997C27.3356 19.8754 27.3356 14.8374 27.3356 9.81315C27.3356 9.37024 27.1003 9.12111 26.6436 9.12111C25.7163 9.12111 24.7889 9.12111 23.8616 9.12111C23.7924 9.12111 23.7232 9.12111 23.6678 9.13495V9.74394C23.7785 9.74394 23.8616 9.74394 23.9585 9.74394C24.6367 9.74394 25.301 9.74394 25.9792 9.74394C26.4775 9.74394 26.699 9.95156 26.699 10.4637C26.699 10.7266 26.699 10.9896 26.699 11.2526C26.699 15.4464 26.699 19.6401 26.699 23.8339C26.699 24.2907 26.4775 24.4983 26.0346 24.4983C19.3356 24.4983 12.6228 24.4983 5.92388 24.4983C5.46713 24.4983 5.25952 24.2907 5.25952 23.8339C5.25952 19.3633 5.25952 14.9066 5.25952 10.436C5.25952 9.93772 5.46713 9.74394 5.9654 9.7301C6.65744 9.7301 7.33564 9.7301 8.02768 9.7301C8.11073 9.7301 8.19377 9.7301 8.29066 9.7301V9.12111L8.3045 9.14879Z" fill="white"/>
<path d="M22.7128 14.3253C22.7128 16.609 22.7128 18.8789 22.7128 21.1627C22.7128 21.7025 22.519 21.8962 21.9654 21.8962C17.9931 21.8962 14.0069 21.8962 10.0346 21.8962C9.48097 21.8962 9.2872 21.7025 9.2872 21.1488C9.2872 16.6229 9.2872 12.0831 9.2872 7.55714C9.2872 6.97583 9.46713 6.7959 10.0484 6.7959C14.0208 6.7959 17.9931 6.7959 21.9516 6.7959C22.5329 6.7959 22.7128 6.97583 22.7128 7.55714C22.7128 9.8132 22.7128 12.0831 22.7128 14.3391V14.3253ZM9.81315 14.3115C9.81315 16.5675 9.81315 18.8236 9.81315 21.0796C9.81315 21.3149 9.88236 21.3703 10.1177 21.3703C14.0484 21.3703 17.9792 21.3703 21.91 21.3703C22.1453 21.3703 22.2145 21.3149 22.2145 21.0796C22.2145 18.9205 22.2145 16.7751 22.2145 14.616C22.2145 12.2769 22.2145 9.93777 22.2145 7.59867C22.2145 7.38644 22.1084 7.28033 21.8962 7.28033C17.9931 7.28033 14.0761 7.28033 10.173 7.28033C9.94233 7.28033 9.82699 7.39105 9.82699 7.61251C9.82699 9.84088 9.82699 12.0831 9.82699 14.3115H9.81315Z" fill="white"/>
<path d="M12.9412 5.6745C12.9412 5.24543 13.2872 4.89941 13.7301 4.89941C14.1592 4.89941 14.4914 5.25928 14.4914 5.68834C14.4914 6.10357 14.1453 6.44959 13.7163 6.44959C13.2872 6.44959 12.9412 6.10357 12.9412 5.6745ZM13.7439 5.38384H13.6471C13.5779 5.48073 13.481 5.57761 13.4671 5.6745C13.4533 5.82675 13.5779 5.92364 13.7301 5.90979C13.8824 5.90979 13.9792 5.79907 13.9516 5.64682C13.9239 5.54993 13.8131 5.46689 13.7439 5.37V5.38384Z" fill="white"/>
<path d="M11.0035 5.67467C11.0035 6.10374 10.6436 6.44976 10.2145 6.44976C9.79931 6.44976 9.45329 6.10374 9.45329 5.67467C9.45329 5.2456 9.79931 4.88574 10.2284 4.88574C10.6574 4.88574 11.0035 5.23176 11.0035 5.67467ZM10.2837 5.38401C10.2837 5.38401 10.2145 5.38401 10.1868 5.38401C10.1176 5.4809 10.0069 5.56394 9.99308 5.66083C9.9654 5.81308 10.09 5.93765 10.2422 5.90996C10.3391 5.89612 10.4637 5.75771 10.4775 5.66083C10.4775 5.57778 10.3668 5.46706 10.2976 5.37017L10.2837 5.38401Z" fill="white"/>
<path d="M11.9723 4.89958C12.4014 4.89958 12.7474 5.25944 12.7336 5.68851C12.7336 6.10374 12.3737 6.44976 11.9585 6.44976C11.5294 6.44976 11.1696 6.08989 11.1834 5.66083C11.1834 5.23176 11.5433 4.88574 11.9723 4.88574V4.89958ZM12.0277 5.38401H11.9308C11.8616 5.4809 11.7509 5.56394 11.737 5.66083C11.7093 5.81308 11.8201 5.9238 11.9862 5.9238C12.1384 5.9238 12.2491 5.82692 12.2215 5.67467C12.2076 5.57778 12.0969 5.4809 12.0415 5.38401H12.0277Z" fill="white"/>
<path d="M12.1799 8.53955C12.8858 8.53955 13.4533 9.10702 13.4533 9.82675C13.4533 10.5188 12.8858 11.0863 12.1799 11.0863C11.474 11.0863 10.9066 10.5049 10.9066 9.79907C10.9066 9.09318 11.474 8.53955 12.1799 8.53955ZM12.1799 10.5603C12.5952 10.5603 12.9412 10.2281 12.9412 9.81291C12.9412 9.41152 12.5952 9.0655 12.1938 9.05166C11.7924 9.05166 11.4325 9.39768 11.4325 9.79907C11.4325 10.2143 11.7647 10.5465 12.1799 10.5465V10.5603Z" fill="white"/>
<path d="M12.1799 19.9583C11.474 19.9583 10.9066 19.3909 10.9066 18.6988C10.9066 17.9929 11.4879 17.4116 12.1799 17.4116C12.8858 17.4116 13.4394 17.9791 13.4533 18.6711C13.4533 19.3909 12.8858 19.9445 12.1799 19.9445V19.9583ZM12.1799 17.9376C11.7647 17.9376 11.4325 18.2836 11.4325 18.685C11.4325 19.0864 11.7785 19.4324 12.1938 19.4324C12.609 19.4324 12.9412 19.0864 12.9412 18.6711C12.9412 18.2559 12.5952 17.9237 12.1799 17.9237V17.9376Z" fill="white"/>
<path d="M13.4533 15.7234C13.4533 16.4293 12.8858 17.0106 12.1799 17.0106C11.4602 17.0106 10.9066 16.4431 10.9066 15.7234C10.9066 15.0313 11.474 14.4639 12.1799 14.4639C12.8858 14.4639 13.4533 15.0175 13.4533 15.7234ZM12.1661 16.4846C12.5813 16.4846 12.9273 16.1524 12.9273 15.7511C12.9273 15.3497 12.5952 14.9898 12.1799 14.9898C11.7647 14.9898 11.4187 15.322 11.4187 15.7234C11.4187 16.1386 11.7509 16.4846 12.1661 16.4846Z" fill="white"/>
<path d="M13.4533 12.7752C13.4533 13.4673 12.8858 14.0348 12.1799 14.0348C11.4741 14.0348 10.8927 13.4534 10.9066 12.7476C10.9066 12.0417 11.4879 11.4742 12.2076 11.488C12.9135 11.488 13.4533 12.0694 13.4533 12.7752ZM12.1799 13.5226C12.5952 13.5226 12.9273 13.1766 12.9273 12.7752C12.9273 12.36 12.5813 12.0278 12.1661 12.0278C11.7509 12.0278 11.4187 12.3739 11.4187 12.7891C11.4187 13.2043 11.7647 13.5365 12.1799 13.5365V13.5226Z" fill="white"/>
<path d="M17.9931 12.5123C18.7543 12.5123 19.5156 12.5123 20.2907 12.5123C20.346 12.5123 20.4152 12.5123 20.4706 12.5123C20.6228 12.5261 20.7336 12.623 20.7059 12.7753C20.6782 12.8722 20.5536 13.0106 20.4567 13.0244C20.2353 13.0659 20.0138 13.0244 19.7924 13.0244C18.4221 13.0244 17.0519 13.0244 15.6678 13.0244C15.5848 13.0244 15.4879 13.0521 15.4464 13.0106C15.3633 12.9414 15.2526 12.8445 15.2526 12.7476C15.2526 12.6784 15.3772 12.5815 15.4602 12.5123C15.5017 12.4846 15.5986 12.5123 15.6678 12.5123C16.4429 12.5123 17.2318 12.5123 18.0069 12.5123H17.9931Z" fill="white"/>
<path d="M17.9792 15.4739C18.7682 15.4739 19.5709 15.4739 20.3599 15.4739C20.5121 15.4739 20.6367 15.5015 20.692 15.6676C20.7474 15.8476 20.6228 15.986 20.3875 15.986C19.8893 15.986 19.3772 15.986 18.8789 15.986C17.7993 15.986 16.7336 15.986 15.654 15.986C15.5848 15.986 15.5017 16.0136 15.4464 15.986C15.3633 15.9168 15.2388 15.8199 15.2388 15.7368C15.2388 15.6538 15.3633 15.5431 15.4464 15.4877C15.5156 15.4462 15.6263 15.4877 15.7232 15.4877C16.4706 15.4877 17.218 15.4877 17.9654 15.4877L17.9792 15.4739Z" fill="white"/>
<path d="M17.9654 9.74414C18.7543 9.74414 19.5571 9.74414 20.346 9.74414C20.5398 9.74414 20.7059 9.78566 20.7059 10.0071C20.7059 10.2286 20.5398 10.2701 20.346 10.2701C18.7543 10.2701 17.1626 10.2701 15.5848 10.2701C15.3495 10.2701 15.2249 10.1732 15.2388 10.0071C15.2526 9.7995 15.4048 9.75798 15.5848 9.75798C16.3737 9.75798 17.1765 9.75798 17.9654 9.75798V9.74414Z" fill="white"/>
<path d="M17.9654 18.4221C18.7405 18.4221 19.5294 18.4221 20.3045 18.4221C20.3875 18.4221 20.4844 18.4083 20.526 18.4498C20.609 18.519 20.7059 18.6297 20.692 18.7128C20.692 18.7958 20.5675 18.8789 20.4706 18.9342C20.4291 18.9619 20.346 18.9342 20.2907 18.9342C18.7266 18.9342 17.1765 18.9342 15.6125 18.9342C15.5709 18.9342 15.5156 18.9342 15.474 18.9342C15.3218 18.9342 15.2249 18.8374 15.2249 18.6851C15.2249 18.519 15.3218 18.4221 15.4879 18.4221C15.737 18.4221 15.9862 18.4221 16.2215 18.4221C16.8028 18.4221 17.3841 18.4221 17.9516 18.4221H17.9654Z" fill="white"/>
</g>
<defs>
<clipPath id="clip0_3006_3650">
<rect width="32" height="32" fill="white"/>
</clipPath>
</defs>
</svg>
