<svg width="32" height="32" viewBox="0 0 32 32" fill="none" xmlns="http://www.w3.org/2000/svg">
<g clip-path="url(#clip0_3006_3630)">
<path d="M6.02268 4.46259C6.17989 3.41043 6.80877 2.87226 7.9093 2.84807C8.07256 2.84807 8.21769 2.82993 8.36281 2.81179C8.72563 0.707483 9.56009 0 11.7007 0C12.7166 0 13.7143 0 14.7302 0C16.6349 0 17.5782 0.852608 17.7959 2.84807C18.2132 2.84807 18.6485 2.84807 19.0839 2.84807C20.0454 2.84807 20.0998 2.90249 20.0998 3.90023C20.0998 4.06349 20.0998 4.22676 20.0998 4.49887C20.3719 4.49887 20.6259 4.49887 20.8617 4.49887C21.9864 4.49887 23.1111 4.49887 24.2358 4.49887C25.5238 4.51701 26.2132 5.24263 26.2132 6.53061C26.2132 7.03855 26.2132 7.56463 26.2132 8.07256C26.2132 8.43537 26.2132 8.83447 25.7234 8.83447C25.2154 8.83447 25.2698 8.39909 25.2698 8.05442C25.2698 7.5102 25.2698 6.98413 25.2698 6.43991C25.2698 5.84127 24.9252 5.51474 24.3628 5.4966C22.9841 5.47846 21.6054 5.4966 20.1179 5.4966C20.1179 5.87755 20.0998 6.22222 20.1179 6.56689C20.1723 7.20181 19.9002 7.43764 19.2653 7.43764C16.6893 7.4195 14.1134 7.43764 11.5374 7.43764C10.0317 7.43764 8.54422 7.43764 7.03855 7.43764C6.20408 7.43764 6.11338 7.34694 6.09524 6.51247C6.09524 6.20408 6.09524 5.91383 6.09524 5.53288C4.58957 5.53288 3.15646 5.51474 1.70522 5.53288C1.23356 5.53288 0.943311 5.87755 0.961451 6.38549C0.961451 6.54875 0.961451 6.71202 0.961451 6.87528C0.961451 14.4943 0.961451 22.0952 0.961451 29.7143C0.961451 30.8209 1.17914 31.0386 2.26757 31.0386C9.50567 31.0386 16.7438 31.0386 23.9819 31.0386C25.0159 31.0386 25.2698 30.7846 25.2698 29.7506C25.2698 28.8617 25.2698 27.9728 25.2698 27.0839C25.2698 26.7392 25.3243 26.3401 25.7596 26.4308C25.941 26.4671 26.195 26.8299 26.2132 27.0658C26.2676 28.0998 26.2494 29.1338 26.2132 30.1497C26.195 31.2381 25.4875 31.9274 24.4172 32C24.2358 32 24.0363 32 23.8549 32C16.7075 32 9.57823 32 2.43084 32C2.21315 32 2.01361 32 1.79592 32C0.671202 31.9274 0 31.2018 0 30.0771C0 22.2041 0 14.3311 0 6.45805C0 5.22449 0.707483 4.51701 1.97732 4.49887C3.10204 4.48073 4.22676 4.49887 5.35147 4.49887C5.5873 4.49887 5.80499 4.48073 6.02268 4.46259ZM19.102 3.86395H7.12925V6.36735H19.102V3.86395ZM16.7075 2.81179C16.7982 1.77778 16.2721 1.05215 15.2562 1.01587C13.8231 0.943311 12.39 0.943311 10.9751 1.01587C9.94104 1.07029 9.36055 1.85034 9.52381 2.82993H16.7075V2.81179Z" fill="white"/>
<path d="M21.3877 21.7143C20.7528 21.8412 20.2267 21.932 19.7007 22.0771C19.2109 22.2041 18.9388 22.0408 18.8481 21.551C18.8481 21.4784 18.8118 21.4059 18.8118 21.3515C18.7755 20.4263 18.3038 19.9728 17.3787 19.8458C16.5623 19.7188 16.5261 19.5737 16.7437 18.7392C16.7437 18.7029 16.7437 18.6485 16.78 18.5941C17.1973 17.7233 16.9252 17.1066 16.1995 16.5079C15.4013 15.873 15.4013 15.7097 16.1995 15.0385C17.0521 14.3129 17.288 13.5691 16.9252 12.4988C16.5986 11.5193 16.7075 11.3741 17.6871 11.2471C18.5034 11.1383 18.8843 10.7755 19.0295 9.95916C19.2109 8.96143 19.3197 8.88887 20.2993 9.23354C21.2063 9.56007 21.805 9.34238 22.3855 8.61676C23.0204 7.83671 23.1837 7.81857 23.8549 8.61676C24.5805 9.46937 25.3242 9.70519 26.4127 9.34238C27.356 9.01585 27.5193 9.1247 27.6644 10.1224C27.7732 10.9388 28.136 11.3016 28.9524 11.4467C29.9501 11.61 29.9501 11.7188 29.6961 12.7347C29.6961 12.7528 29.6961 12.7891 29.6961 12.8072C29.3333 13.5873 29.5147 14.1678 30.1859 14.7301C31.093 15.492 31.0567 15.5465 30.2222 16.4172C30.2222 16.4172 30.1859 16.4535 30.1678 16.4716C29.3696 17.034 29.1519 17.7415 29.551 18.6304C29.6417 18.8118 29.6417 19.0476 29.6961 19.2471C29.7868 19.6644 29.6598 19.9909 29.2245 20.009C28.0635 20.0635 27.4648 20.6258 27.3741 21.7868C27.3379 22.2222 27.0113 22.4036 26.6122 22.2222C25.4512 21.6961 24.5261 21.9501 23.8186 23.0204C23.5828 23.3832 23.2381 23.3288 22.9297 23.0204C22.585 22.6757 22.2403 22.331 21.8775 22.0045C21.7324 21.8775 21.551 21.7868 21.4422 21.7324L21.3877 21.7143ZM19.6644 21.2063C21.2789 20.3174 22.4036 20.7891 23.3288 22.2222C24.0725 20.6984 25.161 20.5714 26.5215 21.2789C26.4671 19.7732 27.2109 19.1383 28.7165 19.1746C27.8458 17.5963 28.2812 16.4354 29.7868 15.5102C28.1905 14.7846 28.1179 13.6961 28.7891 12.3174C27.2471 12.3719 26.6666 11.5555 26.6666 10.2857C25.8866 10.3945 25.161 10.7211 24.5623 10.5397C23.9818 10.3764 23.5465 9.72334 22.966 9.19726C22.2766 10.5941 21.1882 10.7392 19.8095 10.0499C19.9002 11.61 19.0476 12.136 17.7959 12.1723C17.9229 12.9342 18.2313 13.6417 18.068 14.2041C17.8866 14.7846 17.2517 15.2381 16.8163 15.7642C17.2154 16.2177 17.814 16.5986 17.9592 17.1247C18.1043 17.6508 17.814 18.2857 17.6871 18.975C19.0113 18.975 19.7188 19.6462 19.6462 21.2063H19.6644Z" fill="white"/>
<path d="M4.75284 16.7259H11.3923C11.3923 16.0547 11.356 15.4197 11.4104 14.803C11.4286 14.5853 11.6825 14.3857 11.8277 14.1862C12.0091 14.3857 12.3175 14.5671 12.3356 14.7848C12.39 15.5467 12.3537 16.3268 12.3537 17.1068C12.3537 17.5422 12.1361 17.7417 11.7007 17.7417C9.26984 17.7417 6.83901 17.7417 4.39003 17.7417C3.93651 17.7417 3.70068 17.5422 3.70068 17.0705C3.70068 14.6034 3.70068 12.1544 3.70068 9.68732C3.70068 9.21566 3.95465 9.01611 4.40817 9.01611C6.82087 9.01611 9.23356 9.01611 11.6463 9.03425C11.8821 9.03425 12.1179 9.36078 12.3537 9.52405C12.0998 9.66917 11.8639 9.95942 11.61 9.95942C9.59638 9.99571 7.58277 9.97756 5.56916 9.97756C5.3152 9.97756 5.06123 9.97756 4.75284 9.97756V16.7077V16.7259Z" fill="white"/>
<path d="M29.2789 27.1386C29.1701 27.9912 29.1157 28.7168 28.9705 29.4243C28.9343 29.6238 28.7166 29.8778 28.5352 29.9322C28.4082 29.9685 28.0998 29.7508 28.0272 29.5875C27.1383 27.447 26.2676 25.3064 25.4331 23.1476C25.3606 22.9844 25.5964 22.6941 25.669 22.4583C25.8866 22.5853 26.2132 22.6578 26.3039 22.8392C26.83 24.0365 27.3016 25.2519 27.8096 26.4674C27.9184 26.7213 28.0272 26.9753 28.2449 27.2474C28.2993 26.9027 28.3175 26.5581 28.39 26.2134C28.4808 25.7055 28.8073 25.5603 29.2427 25.8506C29.4059 25.9594 29.5329 26.0864 29.678 26.1953C29.805 26.3041 29.932 26.3948 30.2041 26.6125C30.0953 26.286 30.0408 26.1046 29.9683 25.9231C29.3878 24.4719 28.771 23.0207 28.2268 21.5513C28.1361 21.3154 28.3175 20.9889 28.3719 20.7168C28.6077 20.8619 28.9887 20.9708 29.0794 21.1885C30.0227 23.4016 30.9297 25.6329 31.8005 27.8823C31.8912 28.1 31.7642 28.3903 31.7461 28.6442C31.4739 28.5898 31.1656 28.608 30.9479 28.481C30.4037 28.1 29.8957 27.6465 29.2608 27.1386H29.2789Z" fill="white"/>
<path d="M16.4172 26.6123C16.6712 26.3764 16.9252 26.1225 17.1973 25.9048C17.6145 25.5782 17.941 25.6871 18.0862 26.195C18.1769 26.5578 18.2313 26.9206 18.3583 27.5011C18.8481 26.1043 19.2834 24.907 19.7188 23.7279C19.8277 23.4195 19.8821 23.0748 20.0635 22.8209C20.1905 22.6395 20.4989 22.585 20.7165 22.4943C20.7891 22.712 20.9887 22.966 20.9342 23.1474C20.2086 25.288 19.4467 27.4286 18.6667 29.5692C18.5941 29.7506 18.3039 29.9864 18.1769 29.9501C17.9773 29.9138 17.7415 29.678 17.6871 29.4785C17.5238 28.771 17.415 28.0635 17.2698 27.1928C16.6893 27.7188 16.1995 28.2086 15.6735 28.6259C15.4739 28.7891 15.1474 28.7891 14.8934 28.8617C14.8571 28.5896 14.7302 28.2812 14.8027 28.0454C15.5283 25.7959 16.2902 23.5646 17.0521 21.3152C17.161 20.9705 17.288 20.5896 17.7596 20.7528C18.2313 20.9161 18.0862 21.2971 17.9773 21.6417C17.4331 23.2744 16.8889 24.907 16.3265 26.5578C16.3628 26.576 16.4172 26.5941 16.4535 26.6123H16.4172Z" fill="white"/>
<path d="M8.03626 23.7096C9.63263 23.7096 11.2109 23.7096 12.8072 23.7096C13.17 23.7096 13.5873 23.6914 13.6054 24.1631C13.6236 24.6892 13.1882 24.6892 12.8072 24.6892C9.63263 24.6892 6.45803 24.6892 3.26529 24.6892C2.88433 24.6892 2.44896 24.6892 2.4671 24.1631C2.48524 23.6914 2.90248 23.7096 3.26529 23.7096C4.86166 23.7096 6.43989 23.7096 8.03626 23.7096Z" fill="white"/>
<path d="M8.03629 20.3174C9.63266 20.3174 11.2109 20.3174 12.8073 20.3174C13.1701 20.3174 13.5873 20.3174 13.5692 20.8072C13.5692 21.297 13.1519 21.297 12.7891 21.297C9.59638 21.297 6.3855 21.297 3.19275 21.297C2.82994 21.297 2.43085 21.297 2.43085 20.8072C2.43085 20.2992 2.84808 20.3355 3.21089 20.3355C4.8254 20.3355 6.43992 20.3355 8.03629 20.3355V20.3174Z" fill="white"/>
<path d="M8.0363 28.0816C6.43993 28.0816 4.86169 28.0816 3.26532 28.0816C2.90251 28.0816 2.50342 28.0816 2.50342 27.5918C2.50342 27.1021 2.90251 27.1021 3.26532 27.1021C6.45807 27.1021 9.66895 27.1021 12.8617 27.1021C13.2245 27.1021 13.6236 27.1021 13.6417 27.5918C13.6417 28.0816 13.2426 28.0816 12.8798 28.0816C11.2653 28.0816 9.65081 28.0816 8.0363 28.0816Z" fill="white"/>
<path d="M7.873 14.3493C9.10656 13.4604 10.2676 12.6259 11.4104 11.7733C11.5374 11.6826 11.6644 11.5194 11.8095 11.5012C12.0635 11.4649 12.3356 11.5375 12.6077 11.5557C12.5351 11.7915 12.5351 12.1362 12.3719 12.2631C11.5918 12.8981 10.7574 13.4604 9.94103 14.0591C9.32425 14.5126 8.68933 14.9661 8.07255 15.4196C7.70974 15.6736 7.40135 15.6191 7.2018 15.2201C6.80271 14.44 6.40361 13.6781 6.05894 12.8799C5.98638 12.6985 6.16779 12.4083 6.22221 12.1724C6.45804 12.2631 6.78457 12.2994 6.89341 12.4808C7.23808 13.0613 7.52833 13.6781 7.85486 14.3493H7.873Z" fill="white"/>
<path d="M23.2018 20.0817C20.7528 20.0817 18.7755 18.1225 18.7755 15.6916C18.7755 13.2427 20.7347 11.2653 23.1655 11.2472C25.6327 11.2291 27.6281 13.2064 27.6281 15.6916C27.6281 18.1225 25.6689 20.0998 23.2018 20.0998V20.0817ZM26.6485 15.6372C26.6485 13.7506 25.0884 12.2086 23.2018 12.2086C21.3152 12.2086 19.7551 13.7506 19.737 15.6372C19.737 17.542 21.3152 19.1202 23.2381 19.1021C25.1247 19.1021 26.6667 17.5238 26.6485 15.6372Z" fill="white"/>
<path d="M22.585 16.4897C23.2925 15.7278 23.9456 15.0204 24.6168 14.331C24.8707 14.0589 25.1428 13.678 25.5419 14.077C25.9229 14.458 25.5601 14.7482 25.3061 15.0204C24.5805 15.8004 23.8367 16.5986 23.093 17.3786C22.6213 17.8684 22.3855 17.8684 21.9682 17.3242C21.5873 16.8163 21.1882 16.3265 20.8617 15.7823C20.7528 15.5827 20.8617 15.2562 20.8617 15.0022C21.1156 15.0748 21.4422 15.0929 21.6054 15.2562C21.9501 15.6009 22.2041 16.0362 22.5487 16.4897H22.585Z" fill="white"/>
</g>
<defs>
<clipPath id="clip0_3006_3630">
<rect width="31.8549" height="32" fill="white"/>
</clipPath>
</defs>
</svg>
