<svg width="32" height="32" viewBox="0 0 32 32" fill="none" xmlns="http://www.w3.org/2000/svg">
<g clip-path="url(#clip0_3006_3643)">
<path d="M27.34 4.69022C27.88 4.14022 28.42 3.59022 28.99 3.01022C29.61 5.32022 30.22 7.59022 30.84 9.92022C28.53 9.30022 26.25 8.69022 23.95 8.07022C24.52 7.51022 25.06 6.98022 25.61 6.45022C22.55 3.13022 16.77 1.14022 11.13 3.31022C5.01 5.67022 1.46 12.0402 2.65 18.4602C3.85 24.8802 9.36 29.5102 15.91 29.5602C18.34 29.5802 20.62 28.9902 22.73 27.7802C24.84 26.5702 26.51 24.9102 27.74 22.8102C28.97 20.7102 29.56 18.4302 29.58 16.0002H31.96C32.13 21.1802 29.05 27.9002 22.1 30.7802C14.88 33.7602 6.61 31.1102 2.46 24.5202C-1.68 17.9402 -0.500004 9.33022 5.3 4.11022C8.45 1.27022 12.18 -0.0997808 16.42 0.000219228C20.65 0.110219 24.27 1.71022 27.34 4.68022V4.69022Z" fill="white"/>
<path d="M15.09 11.48V17.65H15.75V18.97H15.1V20.62H13.66V18.98H10.9C10.95 18.37 10.83 17.8 11.08 17.23C11.88 15.4 12.65 13.56 13.42 11.72C13.49 11.54 13.59 11.48 13.78 11.49C14.21 11.5 14.64 11.49 15.09 11.49V11.48ZM13.64 14.22C13.64 14.22 13.6 14.22 13.59 14.22C13.14 15.36 12.69 16.5 12.23 17.66H13.64V14.23V14.22Z" fill="white"/>
<path d="M7.41001 14.5298H6.06001C6.06001 13.8098 5.97001 13.0898 6.28001 12.4198C6.51001 11.9198 6.89001 11.5898 7.43001 11.4498C7.92001 11.3198 8.41001 11.3098 8.89001 11.4298C9.60001 11.5998 10.04 12.0598 10.23 12.7598C10.49 13.7598 10.33 14.7098 9.78001 15.5698C9.43001 16.1098 8.99001 16.5898 8.59001 17.0898C8.36001 17.3798 8.10001 17.6498 7.87001 17.9498C7.58001 18.3398 7.45001 18.7798 7.49001 19.2998H10.19V20.6098H6.07001C5.97001 19.2998 6.04001 18.0498 6.96001 16.9998C7.35001 16.5598 7.74001 16.1198 8.11001 15.6698C8.60001 15.0698 8.93001 14.3998 8.90001 13.5998C8.90001 13.4698 8.88001 13.3398 8.86001 13.2198C8.78001 12.8298 8.54001 12.6498 8.13001 12.6598C7.75001 12.6598 7.50001 12.8598 7.45001 13.2498C7.41001 13.5798 7.42001 13.9098 7.42001 14.2398C7.42001 14.3198 7.42001 14.4098 7.42001 14.5198L7.41001 14.5298Z" fill="white"/>
<path d="M24.54 12.79H21.65V11.5H26.01C25.95 12.08 25.97 12.65 25.82 13.18C25.17 15.58 24.47 17.97 23.79 20.36C23.73 20.58 23.64 20.66 23.41 20.65C23.04 20.63 22.66 20.65 22.24 20.65C23.01 18.03 23.77 15.44 24.54 12.8V12.79Z" fill="white"/>
<path d="M20.93 11.48C20.7 12.06 20.49 12.59 20.28 13.13C19.33 15.55 18.37 17.97 17.42 20.39C17.34 20.59 17.24 20.66 17.03 20.65C16.73 20.63 16.42 20.65 16.07 20.65C16.11 20.54 16.13 20.47 16.16 20.39C17.29 17.51 18.43 14.64 19.56 11.76C19.64 11.55 19.74 11.47 19.97 11.49C20.27 11.51 20.57 11.49 20.92 11.49L20.93 11.48Z" fill="white"/>
</g>
<defs>
<clipPath id="clip0_3006_3643">
<rect width="31.98" height="32" fill="white"/>
</clipPath>
</defs>
</svg>
