<svg width="32" height="32" viewBox="0 0 32 32" fill="none" xmlns="http://www.w3.org/2000/svg">
<path d="M23.0643 0L4.25731 18.807L0 31.9064L13.1462 27.4854L14.924 25.7076C14.1287 25.5439 12.6082 25.2398 12.5848 25.2164H12.5614L6.66667 19.2281L23.0643 2.83041L29.0292 8.79532L25.2398 12.5848L25.5673 15.0877L31.8596 8.79532L23.0643 0ZM22.4795 13.0058C21.5906 13.0058 21.4737 13.0058 21.3567 13.076C21.1228 13.193 21.0994 13.2865 21.0292 14.4327C20.9825 14.9942 20.9357 15.4854 20.9123 15.5088C20.9123 15.5088 20.7485 15.5789 20.5614 15.6257C20.0702 15.7661 19.6257 15.9532 19.1345 16.2105C18.8772 16.3509 18.6667 16.4444 18.6199 16.4444C18.5731 16.4444 18.2456 16.1637 17.848 15.8363C16.9591 15.0643 16.9357 15.0643 16.7953 15.0175C16.5848 14.9708 16.3977 15.1111 15.7193 15.7895C15.0409 16.4678 14.9474 16.6082 14.9942 16.8421C15.0175 16.9825 15.0409 17.0292 15.8129 17.8947C16.1404 18.2924 16.4211 18.6433 16.4211 18.6667C16.4211 18.6901 16.3041 18.924 16.1871 19.1813C15.9298 19.6725 15.7427 20.1404 15.6023 20.6082C15.5556 20.7719 15.5088 20.9357 15.4854 20.9591C15.4854 20.9591 14.9708 21.0292 14.4094 21.076C13.2632 21.1696 13.1696 21.193 13.0526 21.4035C12.9825 21.5205 12.9825 21.6374 12.9825 22.5263C12.9825 23.4152 12.9825 23.5322 13.0526 23.6491C13.1696 23.883 13.2632 23.9064 14.386 23.9766C14.9474 24.0234 15.4386 24.0702 15.462 24.0702C15.4854 24.0702 15.5556 24.2105 15.6023 24.4211C15.7427 24.9123 15.9064 25.3567 16.1871 25.8713C16.3275 26.1287 16.4211 26.3392 16.4211 26.386C16.4211 26.4327 16.1637 26.7368 15.8363 27.1111C14.9006 28.2105 14.9006 28.1871 15.0409 28.4912C15.1579 28.7251 16.3977 29.9415 16.5848 29.9883C16.8187 30.0585 16.9357 29.9883 17.8012 29.2398L18.6199 28.538L19.0643 28.7719C19.6023 29.0526 20.1637 29.2865 20.5848 29.3801C20.7953 29.4269 20.9123 29.4737 20.9123 29.5205C20.9123 29.5439 20.9591 30.0351 21.0058 30.5965C21.0994 31.7193 21.1228 31.8129 21.3333 31.9298C21.4503 32 21.5673 32 22.4561 32C23.345 32 23.462 32 23.5789 31.9298C23.8129 31.8129 23.8363 31.7193 23.9064 30.5965C23.9532 30.0351 24 29.5439 24 29.5205C24 29.4737 24.1404 29.4269 24.3977 29.3567C24.8655 29.2398 25.2865 29.0526 25.8246 28.7719C26.0585 28.655 26.269 28.5614 26.2924 28.5614C26.3158 28.5614 26.6667 28.8421 27.0643 29.1696C27.462 29.4971 27.8363 29.8246 27.9064 29.8713C28.0702 30.0117 28.3041 30.0117 28.4912 29.8713C28.7485 29.7076 29.8246 28.5614 29.8947 28.4211C30.0117 28.1637 29.9649 28.0936 29.193 27.2047C28.8187 26.7602 28.4912 26.3626 28.4912 26.3392C28.4912 26.3158 28.5848 26.1053 28.7018 25.8713C28.9825 25.3333 29.1462 24.9123 29.2865 24.4444C29.3567 24.1871 29.4035 24.0702 29.4503 24.0468C29.4737 24.0468 29.9649 24 30.5263 23.9532C31.6491 23.8596 31.7427 23.8363 31.8596 23.6257C31.9298 23.5088 31.9298 23.3918 31.9298 22.5029C31.9298 21.614 31.9298 21.4971 31.8596 21.3801C31.7427 21.1462 31.6491 21.1228 30.5029 21.0526C29.8246 21.0058 29.4503 20.9591 29.4269 20.9357C29.4035 20.9123 29.3567 20.7719 29.3099 20.6082C29.193 20.1871 29.0058 19.6959 28.7251 19.1813C28.5848 18.924 28.4912 18.6901 28.4912 18.6667C28.4912 18.6433 28.7953 18.269 29.1696 17.8246C29.8947 16.9591 29.9649 16.8655 29.8947 16.6316C29.8246 16.4444 28.6082 15.2047 28.3977 15.0877C28.117 14.9474 28.0702 14.9708 27.1579 15.7661C26.7134 16.1404 26.3158 16.4678 26.2924 16.4678C26.269 16.4678 26.0351 16.3509 25.7778 16.2339C25.2866 15.9766 24.7018 15.7427 24.2807 15.6257C24.117 15.5789 24 15.5322 24 15.5088C24 15.4854 23.9532 14.9942 23.9064 14.4327C23.8129 13.3099 23.7895 13.2164 23.5789 13.0994C23.462 13.0292 23.345 13.0292 22.4561 13.0292L22.4795 13.0058ZM22.5731 18.3626C23.462 18.3626 24.3275 18.6901 25.076 19.2749C26.3626 20.3041 26.9006 21.9649 26.4795 23.6257C26.3626 24.0468 26.0117 24.7485 25.7076 25.1228C25.0292 25.9649 24.0936 26.5029 22.9942 26.6433C22.7602 26.6667 22.1754 26.6901 22.0585 26.6433C22.0351 26.6433 21.8713 26.6199 21.731 26.5965C21.2164 26.5029 20.6316 26.269 20.1637 25.9649C18.8772 25.0994 18.152 23.5088 18.3626 21.9883C18.5029 20.9825 19.0175 20.0234 19.7427 19.4152C20.5614 18.7134 21.5672 18.3626 22.5731 18.386V18.3626ZM5.59064 21.2164L10.6199 26.2456L5.82456 27.8596L4.02339 26.0585L5.59064 21.2164Z" fill="white"/>
</svg>
