<svg width="50" height="36" viewBox="0 0 50 36" fill="none" xmlns="http://www.w3.org/2000/svg">
<path d="M0 29.6222C0.360475 28.9225 0.932994 28.6892 1.71756 28.6892C17.2392 28.6892 32.7608 28.6892 48.2824 28.6892C49.067 28.6892 49.6395 28.9013 50 29.6222V35.0081C49.7031 35.305 49.4063 35.6018 49.1094 35.8987H0.890585C0.593723 35.6018 0.296862 35.305 0 35.0081C0 33.2057 0 31.4246 0 29.6222ZM18.3206 29.8979H7.27311C7.27311 30.0887 7.27311 30.2371 7.27311 30.4068C7.27311 31.0217 7.27311 31.6366 7.27311 32.2516C7.27311 32.612 7.10348 32.8665 6.7218 32.8877C6.38253 32.9089 6.14928 32.6544 6.12807 32.2516C6.12807 32.0819 6.12807 31.9123 6.12807 31.7638C6.12807 31.1489 6.12807 30.5552 6.12807 29.9403C6.02205 29.9191 5.95844 29.8979 5.91603 29.8979C4.45293 29.8979 2.98982 29.8979 1.52672 29.8979C1.18745 29.8979 1.16624 30.0887 1.16624 30.3219C1.16624 31.6154 1.18745 32.9301 1.16624 34.2236C1.16624 34.6901 1.29347 34.7961 1.73876 34.7961C5.06785 34.7961 8.41815 34.7961 11.7472 34.7961C11.8957 34.7961 12.0441 34.7961 12.2137 34.7961C12.2137 34.6264 12.2349 34.478 12.2349 34.3296C12.2349 33.6935 12.2349 33.0785 12.2349 32.4424C12.2349 32.0395 12.4894 31.7638 12.8287 31.7851C13.2316 31.8063 13.4012 32.0607 13.4012 32.4424C13.4012 32.612 13.4012 32.7817 13.4012 32.9301C13.4012 33.545 13.4012 34.1387 13.4012 34.7537H24.4487C24.4487 34.4992 24.4487 34.3084 24.4487 34.0963C24.4487 33.5026 24.4487 32.9301 24.4487 32.3364C24.4487 31.9971 24.6607 31.7638 25.0212 31.7638C25.3817 31.7638 25.5725 31.9759 25.5937 32.3152C25.5937 32.4848 25.5937 32.6544 25.5937 32.8029C25.5937 33.439 25.5937 34.0751 25.5937 34.7325H36.6412C36.6412 34.5628 36.6412 34.4356 36.6412 34.2872C36.6412 33.6298 36.6412 32.9725 36.6412 32.3152C36.6412 31.9759 36.8533 31.7426 37.2137 31.7426C37.5742 31.7426 37.7651 31.9547 37.7863 32.294C37.7863 32.4636 37.7863 32.6332 37.7863 32.7817C37.7863 33.4178 37.7863 34.0539 37.7863 34.7113C37.9135 34.7113 37.9771 34.7537 38.0619 34.7537C41.5394 34.7537 44.9958 34.7537 48.4733 34.7537C48.7701 34.7537 48.855 34.6264 48.855 34.3508C48.855 32.9937 48.855 31.6366 48.855 30.2583C48.855 29.8979 48.7065 29.8342 48.3885 29.8342C47.0102 29.8342 45.6319 29.8342 44.2536 29.8342C44.1476 29.8342 44.0416 29.8555 43.8931 29.8767C43.8931 30.0463 43.8931 30.2159 43.8931 30.3644C43.8931 30.9793 43.8931 31.5942 43.8931 32.2091C43.8931 32.5696 43.7235 32.8241 43.3418 32.8453C43.0025 32.8665 42.7481 32.612 42.7481 32.2091C42.7481 31.7638 42.7481 31.3186 42.7481 30.8733C42.7481 30.534 42.7481 30.1947 42.7481 29.8767H31.6794C31.6794 30.0675 31.6794 30.2371 31.6794 30.3856C31.6794 31.0217 31.6794 31.6366 31.6794 32.2728C31.6794 32.612 31.4885 32.8453 31.1281 32.8453C30.7676 32.8453 30.5768 32.6332 30.5343 32.294C30.5343 32.1243 30.5343 31.9759 30.5343 31.8063C30.5343 31.1701 30.5343 30.534 30.5343 29.8767H19.4869C19.4869 30.6824 19.4869 31.4246 19.4869 32.1879C19.4869 32.612 19.2324 32.8877 18.8719 32.8453C18.469 32.8029 18.3418 32.5272 18.3418 32.1455C18.3418 31.4034 18.3418 30.6612 18.3418 29.8555L18.3206 29.8979Z" fill="white"/>
<path d="M26.0409 0C26.6982 0.148431 27.3555 0.254453 27.9917 0.466497C30.9179 1.4207 33.0383 3.30789 34.2682 6.14928C34.6074 6.93384 34.9255 7.7184 35.2648 8.56658C35.6465 8.41815 35.9857 8.26972 36.3462 8.14249C37.1732 7.80322 37.7881 8.05768 38.1274 8.86344C38.3818 9.47837 38.6575 10.1145 38.8907 10.7294C39.1664 11.408 38.9119 12.0229 38.2546 12.3198C37.8729 12.4894 37.4912 12.6378 37.0459 12.8287C37.3004 13.4224 37.5337 13.9949 37.7669 14.5674C38.2334 15.6913 38.1486 16.0093 37.152 16.6879C37.3004 17.0695 37.47 17.4512 37.6397 17.8541C37.7669 17.8117 37.8729 17.7905 37.9789 17.7693C38.5939 17.5997 39.124 17.8117 39.3784 18.4054C39.6541 18.9992 39.8873 19.6141 40.1206 20.229C40.3538 20.8651 40.1206 21.4377 39.4845 21.7133C37.6821 22.4767 35.8797 23.2188 34.0561 23.961C33.3564 24.2366 32.7839 23.9822 32.487 23.2824C32.2962 22.8371 32.1265 22.3919 31.9357 21.9466C31.4904 20.8651 31.5964 20.5471 32.5718 19.9321C32.4234 19.5505 32.2538 19.1688 32.1053 18.8083C30.8119 18.9992 30.7907 18.9779 30.0697 17.536C28.9035 17.8965 29.1155 16.7091 28.649 16.2214C27.9493 16.5182 27.2283 16.7939 26.5286 17.112C26.465 17.1332 26.3801 17.218 26.3589 17.3028C26.2317 17.7905 25.85 17.9601 25.4471 18.1298C21.0366 19.9534 16.6261 21.7769 12.2368 23.6005C10.7313 24.2154 9.16215 23.6005 8.56843 22.1798C7.97471 20.7803 8.67445 19.19 10.1588 18.5751C14.6329 16.7091 19.107 14.8643 23.5812 13.0195C23.8568 12.9135 24.2173 12.9983 24.5141 12.9983C24.6202 12.9983 24.7474 13.0619 24.8534 13.0195C25.5532 12.7438 26.2529 12.447 27.0163 12.1289C26.9314 11.8745 26.8466 11.6412 26.7406 11.408C26.4437 10.6658 26.4437 10.6446 27.0587 10.1569C26.889 9.6268 26.465 9.05428 26.889 8.52417C27.2283 8.12129 27.7796 7.86684 28.2885 7.48516C28.1401 7.14589 27.9493 6.7218 27.7372 6.31891C26.6558 4.3257 25.2139 2.65055 23.5175 1.18745C22.9874 0.742154 23.0722 0.318066 23.7084 0.0424088C23.7296 0.0424088 23.7508 0.0212044 23.7932 0C24.5354 0 25.2987 0 26.0409 0ZM36.8763 15.4792C36.8339 15.3308 36.7915 15.2036 36.7491 15.0975C35.5616 12.2349 34.4378 9.35114 33.1867 6.53096C31.7661 3.3503 29.2639 1.56913 25.8076 1.16624C25.6592 1.16624 25.5108 1.16624 25.3411 1.16624C25.3835 1.25106 25.3835 1.29347 25.4047 1.31467C25.5532 1.4631 25.7016 1.61154 25.8288 1.75997C27.2919 3.30789 28.5218 5.00424 29.3488 6.97625C29.6668 7.76081 29.4336 8.35454 28.6702 8.69381C28.437 8.79983 28.1825 8.90585 27.9069 9.03308C28.0129 9.32994 28.1189 9.58439 28.2249 9.83885C28.437 10.3619 28.338 10.8142 27.9281 11.1959C28.6278 12.8711 29.3063 14.5462 30.0061 16.2002C30.727 16.0941 30.8331 16.1578 31.1087 16.7939C31.2359 17.0908 31.3632 17.3876 31.5116 17.7269C33.3352 16.9635 35.1164 16.2214 36.9187 15.458L36.8763 15.4792ZM23.9628 14.0585C23.772 14.1221 23.6448 14.1858 23.5175 14.2282C20.2097 15.5852 16.923 16.9635 13.6151 18.3206C12.5337 18.7659 11.4522 19.2112 10.392 19.6777C9.71347 19.9746 9.3742 20.7167 9.54383 21.4377C9.69226 22.1162 10.3072 22.6675 11.0281 22.6463C11.325 22.6463 11.6431 22.5403 11.9399 22.4343C15.8415 20.8227 19.7219 19.2112 23.6236 17.5997C24.1325 17.3876 24.6414 17.1756 25.1715 16.9423C24.7686 15.9669 24.3869 15.0339 23.984 14.0585H23.9628ZM33.5896 22.9008C35.3708 22.1586 37.0884 21.4589 38.7847 20.7379C38.8695 20.6955 38.9756 20.5047 38.9543 20.4198C38.7635 19.9109 38.5515 19.402 38.3182 18.8507C36.4734 19.6141 34.6923 20.3562 32.8687 21.1196C33.1231 21.7345 33.3564 22.307 33.6108 22.9008H33.5896ZM25.2139 14.1009C25.5108 14.8007 25.7652 15.3944 26.0197 16.0517C26.8042 15.7337 27.5252 15.4368 28.2885 15.1187C28.0129 14.4402 27.7584 13.8465 27.4828 13.1891C26.7194 13.5072 25.9985 13.8041 25.2139 14.1221V14.1009ZM33.1655 18.2782C33.3564 18.7235 33.5048 19.1052 33.6744 19.5081C34.6711 19.1052 35.6041 18.7023 36.5795 18.2994C36.4098 17.8541 36.2402 17.4936 36.0705 17.0695C35.0951 17.4724 34.1622 17.8541 33.1655 18.2782ZM37.8729 11.2383C37.5549 10.4962 37.2792 9.81764 36.9823 9.1179C36.5158 9.30874 36.1342 9.47837 35.7101 9.64801C36.0281 10.3902 36.3038 11.0687 36.6007 11.7684C37.046 11.5776 37.4276 11.4292 37.8729 11.2383Z" fill="white"/>
<path d="M41.6696 23.664C41.6696 24.1517 41.3515 24.4485 40.9911 24.3425C40.5034 24.1941 40.0157 23.9821 39.5492 23.7488C39.2947 23.6216 39.1887 23.3671 39.2947 23.0703C39.4219 22.7522 39.6764 22.625 39.9733 22.731C40.461 22.9006 40.9275 23.0915 41.3728 23.3247C41.5212 23.3883 41.606 23.6004 41.6696 23.6852V23.664Z" fill="white"/>
<path d="M34.0772 27.3323C33.5895 27.3323 33.3139 26.9719 33.4411 26.5902C33.6107 26.1237 33.8016 25.6784 34.0136 25.2331C34.162 24.9362 34.4377 24.8514 34.7346 24.9786C35.0102 25.0847 35.1586 25.3391 35.0526 25.636C34.883 26.1025 34.6921 26.5902 34.4589 27.0355C34.3741 27.1839 34.162 27.2899 34.0772 27.3535V27.3323Z" fill="white"/>
<path d="M37.7633 24.9157C37.7633 24.9157 38.0601 25.1278 38.1661 25.3186C38.357 25.7003 38.5054 26.1032 38.6538 26.5061C38.7811 26.8453 38.7175 27.1422 38.357 27.2694C38.0177 27.3967 37.7421 27.2694 37.5936 26.9302C37.424 26.5273 37.2332 26.1032 37.0847 25.6791C36.9363 25.2762 37.2119 24.8945 37.7633 24.8945V24.9157Z" fill="white"/>
<path d="M34.1816 31.7434C34.4997 31.7858 34.7117 31.9555 34.7329 32.2947C34.7541 32.6128 34.4785 32.8884 34.1392 32.8884C33.7787 32.8884 33.6091 32.6552 33.5879 32.3159C33.5879 32.0191 33.8423 31.7434 34.1816 31.7434Z" fill="white"/>
<path d="M16.4361 32.2947C16.4148 32.6552 16.224 32.846 15.8847 32.8884C15.5879 32.9097 15.291 32.6552 15.291 32.3371C15.291 31.9979 15.5031 31.7646 15.8423 31.7434C16.2028 31.7434 16.3936 31.9342 16.4361 32.2947Z" fill="white"/>
<path d="M40.8376 32.3795C40.7952 32.6976 40.5831 32.8672 40.2439 32.8884C39.947 32.8884 39.6714 32.5916 39.6926 32.2947C39.735 31.9555 39.9258 31.7434 40.2863 31.7434C40.6043 31.7434 40.8376 32.0191 40.8376 32.3795Z" fill="white"/>
<path d="M3.62525 31.7429C3.96452 31.7853 4.17657 31.9549 4.19777 32.2942C4.21898 32.6123 3.94332 32.9091 3.60405 32.8667C3.26478 32.8455 3.05273 32.6335 3.05273 32.2942C3.05273 31.9549 3.26478 31.7641 3.62525 31.7217V31.7429Z" fill="white"/>
<path d="M10.3063 32.2944C10.3063 32.5912 10.0519 32.8669 9.73382 32.8669C9.41576 32.8669 9.1401 32.6124 9.1613 32.2944C9.1613 31.9339 9.37335 31.7431 9.73382 31.7219C10.0307 31.7006 10.3063 31.9763 10.3275 32.2732L10.3063 32.2944Z" fill="white"/>
<path d="M28.6275 32.3583C28.5851 32.6552 28.4154 32.8884 28.0549 32.8884C27.6945 32.8884 27.5036 32.6764 27.4824 32.3159C27.4824 32.0191 27.7369 31.7434 28.0549 31.7434C28.373 31.7434 28.6275 32.0191 28.6275 32.3583Z" fill="white"/>
<path d="M21.9276 32.8884C21.6095 32.8884 21.355 32.6128 21.3762 32.2947C21.3974 31.9555 21.6095 31.7434 21.97 31.7434C22.2668 31.7434 22.5425 32.0191 22.5213 32.3371C22.5213 32.634 22.2456 32.8884 21.9276 32.8884Z" fill="white"/>
<path d="M46.9467 32.3583C46.9043 32.6552 46.7346 32.8884 46.3742 32.8884C46.0349 32.8884 45.8229 32.6976 45.7804 32.3371C45.7592 32.0191 46.0349 31.7434 46.353 31.7434C46.6498 31.7434 46.9043 32.0191 46.9255 32.3583H46.9467Z" fill="white"/>
</svg>
